<svg width="9" height="10" viewBox="0 0 9 10" fill="none" xmlns="http://www.w3.org/2000/svg">
<path d="M0.739228 0.586915C0.670836 0.586778 0.603089 0.59915 0.539875 0.62332C0.476661 0.64749 0.419225 0.682983 0.370865 0.727761C0.322505 0.772539 0.284172 0.82572 0.258068 0.884252C0.231964 0.942783 0.218603 1.00551 0.218751 1.06884L0.218751 8.77891C0.218751 9.01993 0.478927 9.26083 0.739228 9.26083H5.42314C5.68332 9.26083 5.9435 9.01993 5.9435 8.77891L5.9435 6.36953H6.2038C6.46397 6.36953 6.46397 6.61043 6.46397 6.61043V7.57428C6.46397 8.05608 6.72415 8.2971 7.24463 8.2971C7.7651 8.2971 8.02528 8.05608 8.02528 7.57428V4.92388C8.02528 4.44195 6.98445 3.96014 6.98445 3.47822V2.03257H6.46397L5.9435 1.55065V1.06884C5.94364 1.00552 5.93029 0.942803 5.90419 0.884279C5.87809 0.825755 5.83977 0.772579 5.79143 0.727802C5.74308 0.683026 5.68566 0.64753 5.62246 0.623353C5.55926 0.599176 5.49153 0.586793 5.42314 0.586915L0.739228 0.586915ZM1.25958 1.55065L4.90267 1.55065V3.47822L1.25958 3.47822L1.25958 1.55065ZM5.9435 2.9963H6.46397V3.71913C6.46397 4.20105 7.5048 4.68297 7.5048 5.16478V7.57428C7.5048 7.81518 7.24463 7.81518 7.24463 7.81518C7.24463 7.81518 6.98445 7.81518 6.98445 7.57428V6.36953C6.98445 6.12862 6.72415 5.88761 6.46397 5.88761H5.9435V2.9963Z" fill="white"/>
</svg>
