<svg width="22" height="22" viewBox="0 0 22 22" fill="none" xmlns="http://www.w3.org/2000/svg">
<g clip-path="url(#clip0_1286_487)">
<path d="M17.1586 0.774414V4.18553H14.0059C13.0084 4.18553 11.907 4.67245 10.9859 5.60307C10.0648 6.53368 9.06376 7.91426 7.47454 10.1846C5.87814 12.4652 4.98914 13.8433 4.43474 14.4626C3.88034 15.0819 3.96951 15.0288 3.16263 15.0288H0.0381333H0V17.7396H0.0381333H3.16263C4.37406 17.7396 5.59253 17.2333 6.45374 16.2713C7.31494 15.3092 8.12779 13.9766 9.69401 11.7391C11.2674 9.49144 12.2677 8.16121 12.9117 7.51052C13.5558 6.85985 13.5835 6.89635 14.006 6.89635H17.1587V10.4557L22 5.61575L17.1586 0.774414ZM0 4.18551V6.89634H0.0381333H3.16263C3.96951 6.89634 3.88034 6.84179 4.43474 7.46109C4.79143 7.85955 5.37904 8.70457 6.11206 9.76954C6.21141 9.62703 6.25823 9.55832 6.36337 9.40808C6.76267 8.83765 7.12536 8.32298 7.4604 7.85359C7.577 7.69024 7.67468 7.56138 7.78516 7.40884C7.28977 6.69313 6.8772 6.12549 6.45374 5.65246C5.59253 4.69043 4.37406 4.18551 3.16263 4.18551H0.038115H0ZM17.1586 11.5457V15.0288H14.0059C13.5834 15.0288 13.5557 15.0639 12.9117 14.4132C12.4857 13.9828 11.8823 13.2199 11.0819 12.126C10.985 12.2633 10.9067 12.372 10.8051 12.5171C10.2446 13.3178 9.85824 13.8954 9.45254 14.4937C10.0281 15.256 10.5181 15.8481 10.9859 16.3206C11.907 17.2513 13.0084 17.7396 14.0059 17.7396H17.1587V21.227L22 16.387L17.1586 11.5457Z" fill="white"/>
</g>
<defs>
<clipPath id="clip0_1286_487">
<rect width="22" height="22" fill="white"/>
</clipPath>
</defs>
</svg>
