<svg width="31" height="31" viewBox="0 0 31 31" fill="none" xmlns="http://www.w3.org/2000/svg">
<path d="M12.5938 23.7358C12.4029 23.7361 12.2139 23.6986 12.0376 23.6255C11.8612 23.5525 11.7011 23.4453 11.5663 23.3102L4.78503 16.5295C4.5125 16.257 4.35939 15.8874 4.35938 15.502C4.35936 15.1166 4.51246 14.747 4.78497 14.4744C5.05749 14.2019 5.42711 14.0488 5.81251 14.0488C6.19792 14.0488 6.56754 14.2019 6.84008 14.4744L12.5938 20.2277L25.1288 7.69319C25.4013 7.42068 25.7709 7.26758 26.1563 7.26758C26.5417 7.26758 26.9113 7.42068 27.1838 7.69319C27.4563 7.96571 27.6094 8.33532 27.6094 8.72072C27.6094 9.10611 27.4563 9.47572 27.1838 9.74824L13.6213 23.3102C13.4865 23.4453 13.3264 23.5525 13.15 23.6255C12.9737 23.6986 12.7847 23.7361 12.5938 23.7358Z" fill="white"/>
</svg>
