<svg width="20" height="19" viewBox="0 0 20 19" fill="none" xmlns="http://www.w3.org/2000/svg">
<path d="M9.9657 0.923549L12.0639 7.15055C12.1393 7.37427 12.349 7.52493 12.5851 7.52493H19.3512C19.3685 7.52493 19.3768 7.5297 19.3817 7.53352C19.3881 7.53857 19.395 7.54745 19.3989 7.55989C19.4028 7.57232 19.4023 7.58352 19.3999 7.59136C19.3981 7.5973 19.394 7.60597 19.3799 7.61588L13.925 11.4375C13.7252 11.5775 13.6415 11.8324 13.7194 12.0636L15.8074 18.2602C15.8127 18.2762 15.811 18.2856 15.8089 18.2915C15.8063 18.2993 15.8002 18.3086 15.7899 18.3162C15.7797 18.3239 15.7691 18.3271 15.7609 18.3275C15.7546 18.3278 15.7451 18.3268 15.7313 18.3171L10.2339 14.4657C10.0444 14.333 9.79219 14.333 9.60273 14.4657L4.10535 18.3171C4.09152 18.3268 4.08205 18.3278 4.07575 18.3275C4.06756 18.3271 4.05696 18.3239 4.0467 18.3162C4.03645 18.3086 4.03035 18.2993 4.02768 18.2915C4.02563 18.2856 4.02388 18.2762 4.02927 18.2602L6.11725 12.0636C6.19515 11.8324 6.11144 11.5775 5.91162 11.4375L0.45674 7.61588C0.442594 7.60597 0.43854 7.5973 0.436728 7.59136C0.434333 7.58352 0.433823 7.57232 0.437745 7.55989C0.441668 7.54745 0.448514 7.53857 0.454973 7.53352C0.459862 7.5297 0.468156 7.52493 0.485429 7.52493H7.25152C7.48759 7.52493 7.69734 7.37427 7.77272 7.15055L9.87093 0.923548C9.87625 0.907777 9.88323 0.901358 9.8885 0.8978C9.8953 0.893211 9.90566 0.889514 9.91832 0.889514C9.93098 0.889514 9.94133 0.893212 9.94813 0.8978C9.9534 0.901358 9.96039 0.907777 9.9657 0.923549Z" stroke="white" stroke-opacity="0.5" stroke-width="0.5"/>
</svg>
