<svg width="21" height="19" viewBox="0 0 21 19" fill="none" xmlns="http://www.w3.org/2000/svg">
<path d="M10.3684 1.11716C10.4601 0.844883 10.8452 0.844883 10.937 1.11716L13.0352 7.34416C13.0763 7.46619 13.1907 7.54837 13.3195 7.54837H20.0856C20.3788 7.54837 20.4979 7.9258 20.2577 8.09407L14.8028 11.9157C14.6938 11.9921 14.6482 12.1311 14.6907 12.2572L16.7786 18.4538C16.8711 18.7283 16.5594 18.9615 16.3222 18.7953L10.8248 14.9439C10.7215 14.8715 10.5839 14.8715 10.4806 14.9439L4.98317 18.7953C4.74595 18.9615 4.43425 18.7283 4.52674 18.4538L6.61471 12.2572C6.6572 12.1311 6.61154 11.9921 6.50255 11.9157L1.04767 8.09407C0.807493 7.9258 0.926552 7.54837 1.2198 7.54837H7.98589C8.11466 7.54837 8.22907 7.46619 8.27018 7.34416L10.3684 1.11716Z" fill="white"/>
</svg>
